<?xml version="1.0" encoding="UTF-8"?>
<svg xmlns="http://www.w3.org/2000/svg" viewBox="0 0 409.78 401.37">
  <defs>
    <style>
      .cls-1 {
        fill: #ad6253;
      }

      .cls-2, .cls-3, .cls-4 {
        fill: #fff;
      }

      .cls-5 {
        fill: #383d84;
      }

      .cls-3 {
        opacity: .5;
      }

      .cls-3, .cls-4 {
        mix-blend-mode: soft-light;
      }

      .cls-6 {
        fill: #b56757;
      }

      .cls-7 {
        fill: #8f4536;
      }

      .cls-8 {
        isolation: isolate;
      }

      .cls-9 {
        fill: #6265ce;
      }

      .cls-10 {
        fill: #ffb552;
      }

      .cls-11 {
        fill: #a9b3ff;
      }

      .cls-12 {
        fill: #d35d57;
      }

      .cls-13 {
        fill: #faa894;
      }

      .cls-14 {
        fill: #ef9983;
      }

      .cls-15 {
        fill: none;
        stroke: #162a45;
        stroke-linecap: round;
        stroke-linejoin: round;
        stroke-width: .38px;
      }

      .cls-16 {
        fill: #162a45;
      }

      .cls-17 {
        fill: #f78721;
      }

      .cls-18 {
        fill: #00bf63;
      }

      .cls-19 {
        fill: #252a5e;
      }

      .cls-20 {
        fill: #7b85e8;
      }

      .cls-21 {
        fill: #4d52a8;
      }

      .cls-22 {
        fill: #33896e;
      }
    </style>
  </defs>
  <g class="cls-8">
    <g id="Layer_2" data-name="Layer 2">
      <g id="OBJECTS">
        <path class="cls-18" d="m40.12,229.34c-13.49-53.74-2.98-112.27,37.42-155C117.8,31.77,180.65,13.27,241.15,12.13c67.3-1.26,126.25,23.92,148.52,87.1,10.59,30.03,14.05,65.01,10.35,96.46-7.11,60.48-40.05,117.46-95.08,150.22-50.69,30.18-115.97,38.4-170.07,11.09-3.35-1.69-6.63-3.5-9.84-5.42-44.69-26.73-72.96-74.63-84.91-122.25Z"/>
        <g>
          <g>
            <path class="cls-11" d="m319.42,41.37v66.78c0,3.08,2.5,5.58,5.58,5.58h56.23c3.08,0,5.58-2.5,5.58-5.58V41.37h-67.4Z"/>
            <g>
              <rect class="cls-12" x="328.31" y="88.49" width="12.21" height="16.09"/>
              <rect class="cls-12" x="347.02" y="75.73" width="12.21" height="28.85"/>
              <rect class="cls-12" x="365.72" y="64.67" width="12.21" height="39.91"/>
            </g>
            <path class="cls-16" d="m327.76,74.31c4.43-1.56,8.83-3.19,13.08-5.16l1.6-.71,1.58-.76,3.16-1.53c2.08-1.08,4.16-2.13,6.2-3.28,4.09-2.26,8.1-4.65,12-7.2,3.89-2.54,7.75-5.24,11.33-8.05l2.43,3.24c-4.01,2.71-8.05,5.11-12.2,7.41-4.14,2.3-8.36,4.43-12.65,6.41-2.13,1.01-4.31,1.92-6.48,2.85l-3.29,1.31-1.64.65-1.66.6c-4.41,1.67-8.94,2.99-13.46,4.23Z"/>
            <path class="cls-9" d="m383.41,32h-60.58c-1.88,0-3.41,1.53-3.41,3.41v5.96h67.4v-5.96c0-1.88-1.53-3.41-3.41-3.41Z"/>
          </g>
          <g>
            <path class="cls-16" d="m34.62,6.27v72.7c0,2.89,2.34,5.23,5.23,5.23h69.5c2.89,0,5.23-2.34,5.23-5.23V6.27c0-3.46-2.8-6.27-6.26-6.27H40.89c-3.46,0-6.26,2.8-6.26,6.27Z"/>
            <g>
              <path class="cls-21" d="m73.63,14.81c-16.22.05-29.54,13.41-29.54,29.63s13.37,29.63,29.63,29.63,29.57-13.31,29.63-29.53l-29.63-.1-.09-29.63Z"/>
              <path class="cls-10" d="m108.02,39.76c0-16.25-13.37-29.63-29.63-29.63-.03,0-.06,0-.09,0l.09,29.63h29.63Z"/>
            </g>
          </g>
        </g>
        <g>
          <path class="cls-10" d="m136.81,212.8c0-38.13-31.19-68.97-69.45-68.4C31.1,144.95,1.22,174.26.04,210.51c-.69,21.09,8.17,40.13,22.59,53.12,6.88,6.2,11.58,14.44,13.67,23.45l4.52,19.5h55.16l4.62-19.95c2.09-9.01,7.03-17.04,13.87-23.28,13.72-12.51,22.33-30.52,22.33-50.55Z"/>
          <path class="cls-2" d="m82.79,290.5c-.25,0-.51-.05-.76-.14-1.12-.42-1.68-1.67-1.26-2.78l15.26-40.44-5.01-13.78-6.26,13.68c-.37.8-1.17,1.28-2.06,1.26-.88-.04-1.65-.6-1.94-1.43l-4.69-13.1-5.06,12.71c-.33.82-1.12,1.36-2.01,1.36s-1.68-.54-2.01-1.36l-5.06-12.71-4.69,13.1c-.3.83-1.06,1.39-1.94,1.43-.9.02-1.69-.46-2.06-1.26l-6.26-13.68-5.01,13.78,15.26,40.44c.42,1.12-.14,2.36-1.26,2.78-1.12.42-2.36-.14-2.78-1.26l-15.54-41.19c-.18-.48-.19-1.01,0-1.5l7.08-19.49c.3-.82,1.07-1.39,1.94-1.42.87-.03,1.69.46,2.05,1.26l6.25,13.65,4.83-13.48c.3-.85,1.1-1.42,2-1.43.91,0,1.71.53,2.05,1.36l5.16,12.98,5.16-12.98c.33-.83,1.15-1.37,2.05-1.36.9.02,1.69.59,2,1.43l4.83,13.48,6.25-13.65c.36-.8,1.17-1.3,2.05-1.26.88.03,1.64.6,1.94,1.42l7.08,19.49c.18.49.17,1.02,0,1.5l-15.54,41.19c-.33.87-1.15,1.4-2.02,1.4Z"/>
          <ellipse class="cls-3" cx="45.79" cy="180.52" rx="36.41" ry="22.07" transform="translate(-98.64 62.94) rotate(-36.62)"/>
          <ellipse class="cls-12" cx="68.22" cy="327.13" rx="12.14" ry="5.84"/>
          <path class="cls-16" d="m37.51,295.69v15.52c0,8.8,7.13,15.93,15.93,15.93h29.93c8.8,0,15.93-7.13,15.93-15.93v-15.52h-61.78Z"/>
          <path class="cls-5" d="m97.28,323.09c-.05,0-.11,0-.16,0l-60.22-4.41c-1.09-.08-1.95-.96-2-2.05-.05-1.09.71-2.05,1.79-2.23l43.1-7.45-43.83-1.69c-1.19-.05-2.12-1.05-2.08-2.24.05-1.19,1.08-2.15,2.24-2.08l64.36,2.48c1.11.04,2,.91,2.07,2.02.07,1.1-.7,2.08-1.79,2.27l-46,7.94,42.66,3.13c1.19.09,2.08,1.12,2,2.31-.08,1.14-1.03,2-2.15,2Z"/>
          <path class="cls-5" d="m100.03,298.31h-63.26c-2.64,0-4.78-2.14-4.78-4.78h0c0-2.64,2.14-4.78,4.78-4.78h63.26c2.64,0,4.78,2.14,4.78,4.78h0c0,2.64-2.14,4.78-4.78,4.78Z"/>
        </g>
        <g>
          <path class="cls-22" d="m348.02,208.38c2.1,0,4-1.19,5.44-3.14v15.34h15.34c-1.95,1.43-3.14,3.34-3.14,5.44,0,4.46,5.38,8.07,12.02,8.07s12.02-3.61,12.02-8.07c0-2.1-1.19-4-3.14-5.44h15.34v-41.08c0-4.06-3.29-7.35-7.35-7.35h-41.08v15.34c-1.43-1.95-3.34-3.14-5.44-3.14-4.46,0-8.07,5.38-8.07,12.02s3.61,12.02,8.07,12.02Z"/>
          <path class="cls-12" d="m341.25,226.01c0-2.1-1.19-4-3.14-5.44h15.34v-15.34c1.43,1.95,3.34,3.14,5.44,3.14,4.46,0,8.07-5.38,8.07-12.02s-3.61-12.02-8.07-12.02c-2.1,0-4,1.19-5.44,3.14v-15.34h-41.08c-4.06,0-7.35,3.29-7.35,7.35v41.08h15.34c-1.95,1.43-3.14,3.34-3.14,5.44,0,4.46,5.38,8.07,12.02,8.07s12.02-3.61,12.02-8.07Z"/>
          <path class="cls-21" d="m358.88,232.66c-2.1,0-4,1.19-5.44,3.14v-15.34h-15.34c1.95-1.43,3.14-3.34,3.14-5.44,0-4.46-5.38-8.07-12.02-8.07s-12.02,3.61-12.02,8.07c0,2.1,1.19,4,3.14,5.44h-15.34v41.08c0,4.06,3.29,7.35,7.35,7.35h41.08v-15.34c1.43,1.95,3.34,3.14,5.44,3.14,4.46,0,8.07-5.38,8.07-12.02s-3.61-12.02-8.07-12.02Z"/>
          <path class="cls-10" d="m365.66,215.03c0,2.1,1.19,4,3.14,5.44h-15.34v15.34c-1.43-1.95-3.34-3.14-5.44-3.14-4.46,0-8.07,5.38-8.07,12.02s3.61,12.02,8.07,12.02c2.1,0,4-1.19,5.44-3.14v15.34h41.08c4.06,0,7.35-3.29,7.35-7.35v-41.08h-15.34c1.95-1.43,3.14-3.34,3.14-5.44,0-4.46-5.38-8.07-12.02-8.07s-12.02,3.61-12.02,8.07Z"/>
          <ellipse class="cls-3" cx="339.95" cy="181.16" rx="16.07" ry="4.62"/>
          <path class="cls-3" d="m342.15,261.06c0-2.55,7.2-4.62,16.07-4.62s16.07,2.07,16.07,4.62-7.2,4.62-16.07,4.62-16.07-2.07-16.07-4.62Z"/>
        </g>
        <g>
          <g>
            <rect class="cls-2" x="97.44" y="30.48" width="131.22" height="215.47" rx="6.37" ry="6.37"/>
            <path class="cls-9" d="m206.95,94.32c0,13.09-5.73,24.85-14.82,32.89-2.26,2-4.73,3.78-7.38,5.28-6.4,3.64-13.8,5.73-21.7,5.73-9.32,0-17.96-2.9-25.07-7.85-2.8-1.95-5.35-4.21-7.62-6.74-6.97-7.77-11.22-18.05-11.22-29.31,0-24.25,19.66-43.9,43.9-43.9s43.9,19.66,43.9,43.9Z"/>
            <g>
              <rect class="cls-11" x="131.34" y="158.54" width="63.42" height="2.3"/>
              <rect class="cls-11" x="115.63" y="170.97" width="94.85" height="2.3"/>
              <rect class="cls-11" x="115.63" y="183.4" width="94.85" height="2.3"/>
              <rect class="cls-11" x="115.63" y="195.84" width="94.85" height="2.3"/>
            </g>
            <g>
              <path class="cls-10" d="m129.17,220.92l-3.85-.89-2.04-3.39c-.27-.46-.94-.46-1.21,0l-2.04,3.39-3.85.89c-.52.12-.72.75-.37,1.15l2.59,2.99-.34,3.94c-.05.53.49.92.98.71l3.64-1.54,3.64,1.54c.49.21,1.03-.18.98-.71l-.34-3.94,2.59-2.99c.35-.4.14-1.03-.37-1.15Z"/>
              <path class="cls-10" d="m149.36,220.92l-3.85-.89-2.04-3.39c-.27-.46-.94-.46-1.21,0l-2.04,3.39-3.85.89c-.52.12-.72.75-.37,1.15l2.59,2.99-.34,3.94c-.05.53.49.92.98.71l3.64-1.54,3.64,1.54c.49.21,1.03-.18.98-.71l-.34-3.94,2.59-2.99c.35-.4.14-1.03-.37-1.15Z"/>
              <path class="cls-10" d="m169.55,220.92l-3.85-.89-2.04-3.39c-.27-.46-.94-.46-1.21,0l-2.04,3.39-3.85.89c-.52.12-.72.75-.37,1.15l2.59,2.99-.34,3.94c-.05.53.49.92.98.71l3.64-1.54,3.64,1.54c.49.21,1.03-.18.98-.71l-.34-3.94,2.59-2.99c.35-.4.14-1.03-.37-1.15Z"/>
              <path class="cls-10" d="m189.74,220.92l-3.85-.89-2.04-3.39c-.27-.46-.94-.46-1.21,0l-2.04,3.39-3.85.89c-.52.12-.72.75-.37,1.15l2.59,2.99-.34,3.94c-.05.53.49.92.98.71l3.64-1.54,3.64,1.54c.49.21,1.03-.18.98-.71l-.34-3.94,2.59-2.99c.35-.4.14-1.03-.37-1.15Z"/>
              <path class="cls-10" d="m209.93,220.92l-3.85-.89-2.04-3.39c-.27-.46-.94-.46-1.21,0l-2.04,3.39-3.85.89c-.52.12-.72.75-.37,1.15l2.59,2.99-.34,3.94c-.05.53.49.92.98.71l3.64-1.54,3.64,1.54c.49.21,1.03-.18.98-.71l-.34-3.94,2.59-2.99c.35-.4.14-1.03-.37-1.15Z"/>
            </g>
          </g>
          <g>
            <path class="cls-12" d="m192.13,127.21c-2.26,2-4.73,3.78-7.38,5.28-6.4,3.64-13.8,5.73-21.7,5.73-9.32,0-17.96-2.9-25.07-7.85-2.8-1.95-5.35-4.21-7.62-6.74,1.01-.5,2.07-.88,3.19-1.14l6.72-1.5,13.46.6,17.95.81,11.32.5,4.3,1.46c1.81.61,3.44,1.59,4.82,2.83Z"/>
            <path class="cls-12" d="m184.75,132.49c-6.4,3.64-13.8,5.73-21.7,5.73-9.32,0-17.96-2.9-25.07-7.85l.21-.84.45-1.84,1.01-4.13.42-1.75.2-.81,12.28-1.88,1.92-.29,10.43-1.59,5.84,1.84h.02l2.1.66.87.28h0l9.25,2.89.06.34.32,1.77,1.36,7.47Z"/>
            <g>
              <g>
                <path class="cls-13" d="m155.66,101.85l-1.2,17.21s9.82,4.89,16.33,1.08l-.23-13.06-14.9-5.23Z"/>
                <path class="cls-1" d="m170.71,115.59c-8.63-.73-11.67-5.44-11.67-5.44l11.59.82.08,4.63Z"/>
                <path class="cls-13" d="m152.55,119.13l12.35-1.88,7.96,2.5c-1.57,8.18-17.54,8.73-20.31-.62Z"/>
              </g>
              <g>
                <path class="cls-16" d="m184.79,75.36c-.81-3.23-3.26-5.9-6.31-7.25-.01-1.45-.96-2.78-2.18-3.56s-2.68-1.11-4.12-1.3c-4.63-.6-9.32.19-13.59,2.1-1.34-1.06-3.3-1.1-4.88-.43-1.58.67-2.82,1.96-3.82,3.35-1.8,2.49-2.6,5.66-2.99,8.71-3.24,1.55-5.45,5.05-5.45,8.64,0,1.48.53,3.18,1.91,3.71.28,6.76,4.64,13.22,10.79,16.03l24.35-7.74c2.51-3.8,3.97-8.26,4.3-12.81,2.05-2.63,2.8-6.22,1.99-9.45Z"/>
                <path class="cls-13" d="m173.08,73.17c-16.07-1.99-24.51,5.74-23.15,20.75,1.08,11.95,8.02,19.38,19.32,19.42,10.41.03,12.1-8.46,12.24-17.37.2-12.7,1.13-21.62-8.41-22.8Z"/>
                <path class="cls-16" d="m149.52,95.92c3.82-2.37,6.32-6.72,6.45-11.21.57.5,1.47.47,2.1.06s1.01-1.13,1.17-1.87c.16-.74.13-1.5.09-2.25,2.78.89,5.74,1.25,8.65,1.1.6-.03,1.21-.09,1.77-.31.56-.22,1.07-.64,1.28-1.21,3.26,1.91,7.35,2.46,10.98,1.44.53-2.9-1.09-5.95-3.37-7.82-2.28-1.86-5.28-2.67-8.22-2.78-2.94-.11-5.87.41-8.76.96-4.11.78-8.52,1.77-11.28,4.91-2.2,2.5-2.95,6.01-2.75,9.34.2,3.32.84,6.48,1.88,9.64Z"/>
                <g>
                  <path class="cls-16" d="m181.09,89.84s-4.02-.68-6.5-.24c1.35-1.87,4.94-.97,6.5.24Z"/>
                  <path class="cls-16" d="m161.61,89.84s4.02-.68,6.5-.24c-1.35-1.87-4.94-.97-6.5.24Z"/>
                  <g>
                    <path class="cls-16" d="m175.84,95.76c0,.8.52,1.44,1.17,1.44s1.17-.65,1.17-1.44-.52-1.44-1.17-1.44-1.17.65-1.17,1.44Z"/>
                    <path class="cls-2" d="m177.02,95.24c0,.26.16.46.37.46s.37-.21.37-.46-.16-.46-.37-.46-.37.21-.37.46Z"/>
                  </g>
                  <g>
                    <path class="cls-16" d="m164.51,95.76c0,.8.52,1.44,1.17,1.44s1.17-.65,1.17-1.44-.52-1.44-1.17-1.44-1.17.65-1.17,1.44Z"/>
                    <path class="cls-2" d="m165.68,95.24c0,.26.16.46.37.46s.37-.21.37-.46-.16-.46-.37-.46-.37.21-.37.46Z"/>
                  </g>
                  <path class="cls-1" d="m172.58,101.08s.05,0,.07,0c.69-.13,1.18-.42,1.41-.83.13-.23.24-.63.04-1.17-.12-.31-.35-.7-.61-1.12-.23-.38-.47-.78-.56-1.04-.07-.19-.28-.29-.48-.22-.19.07-.29.29-.22.48.12.32.36.73.62,1.16.22.37.45.76.55,1,.09.22.09.4,0,.54-.12.21-.44.38-.9.46-.2.04-.33.23-.3.43.03.18.19.3.36.3Z"/>
                  <path class="cls-7" d="m167.63,103.2c.09-.16.35-.25.51-.13,1.39,1.02,3.15,1.29,4.78.71.45-.16.65.56.2.72-1.79.63-3.82.34-5.36-.79-.16-.12-.24-.32-.13-.51Z"/>
                </g>
                <g>
                  <path class="cls-13" d="m152.61,96.15c.95,2.35.27,4.63-1.44,5.32-1.7.69-3.86-.66-4.81-3.01-.95-2.35-.34-4.82,1.36-5.51s3.93.86,4.89,3.21Z"/>
                  <path class="cls-1" d="m150.96,99.18c.15,0,.29-.09.35-.25.07-.19-.03-.41-.22-.47-.38-.14-.8-.49-.82-.96,0-.18.06-.36.14-.57.08-.21.17-.44.19-.71.03-.49-.16-1.01-.52-1.37-.45-.47-1.04-.7-1.58-.61-.89.14-1.36,1.01-1.36,1.8,0,.21.17.37.37.37s.37-.17.37-.37c0-.46.26-.99.74-1.07.35-.05.72.18.92.39.21.22.33.52.31.81,0,.15-.07.32-.14.49-.1.25-.21.54-.19.88.04.81.69,1.4,1.31,1.62.04.01.08.02.12.02Z"/>
                </g>
              </g>
            </g>
          </g>
        </g>
        <circle class="cls-4" cx="189.12" cy="331.87" r="58.7" transform="translate(-185.91 404.36) rotate(-71.26)"/>
        <path class="cls-16" d="m157.7,269.87c34.19-17.33,76.1-3.61,93.42,30.57,17.33,34.19,3.61,76.1-30.57,93.42-34.19,17.33-76.1,3.61-93.42-30.57s-3.61-76.1,30.57-93.42Zm6.52,12.85c-27.1,13.74-37.97,46.96-24.24,74.05,13.74,27.1,46.96,37.97,74.06,24.23,27.1-13.74,37.97-46.96,24.23-74.05s-46.96-37.97-74.05-24.23Z"/>
        <rect class="cls-16" x="110.81" y="358.27" width="24.04" height="14.41" transform="translate(-151.96 95.02) rotate(-26.88)"/>
        <path class="cls-17" d="m65.51,394.53h0c2.61,5.16,8.91,7.22,14.07,4.6l38.65-19.59-9.46-18.67-38.65,19.59c-5.16,2.61-7.22,8.91-4.6,14.07Z"/>
        <path class="cls-21" d="m112.81,359.64l8.8,17.36c.96,1.89.2,4.2-1.69,5.16-1.89.96-4.2.2-5.16-1.69l-8.8-17.36c-.96-1.89-.2-4.2,1.69-5.16,1.89-.96,4.2-.2,5.16,1.69Z"/>
        <g>
          <g>
            <g>
              <path class="cls-20" d="m322.5,331.12c-.08.02-.14.05-.22.07-.17-.85-.33-1.71-.44-2.56-1.15-8.58.57-17.49,4.34-25.28,4.25.29,8.36,1.72,12.02,3.91-2.78,2.87-.36,9,4.48,7.74,1.27-.33,2.15-1.03,2.68-1.89,2.61,2.78,4.81,5.95,6.62,9.31,3.46,6.43,5.52,13.59,6.12,20.87-.39,0-.81.05-1.24.16-5.36,1.4-3.7,9.23,1.19,9.11-.17,1.85-1.29,6.54-1.66,8.36-6.78-.3-16.19-4.14-22.74-9.8-3.56-3.08-6.39-6.92-8.43-11.16,5.26-1.8,2.89-10.29-2.73-8.82Z"/>
              <path class="cls-15" d="m327.07,306.04c15.1,23.6,27.69,48.81,37.5,75.06"/>
            </g>
            <g>
              <path class="cls-20" d="m404.28,305.05c.45-.17.88-.28,1.31-.33-1.63-2.77-3.71-5.23-6.19-7.17-11.56,2.72-21.78,10.71-27.21,21.27-2.62,5.08-4.09,10.72-4.43,16.43.02,0,.04-.02.06-.03,6.37-2.45,10.15,7.44,3.8,9.88-1.19.46-2.29.48-3.25.21.5,2.74,1.27,5.44,2.33,8.02,9.11.22,18.77-2.41,25.99-7.96.08-.06.15-.12.22-.18-2.55-2.38-2.83-7.32,1.42-8.96,2.4-.92,4.43-.1,5.69,1.42,3.17-4.57,5.22-9.89,5.67-15.43.21-2.59.04-5.26-.47-7.88-.34.22-.71.42-1.14.59-6.37,2.45-10.15-7.44-3.8-9.88Z"/>
              <path class="cls-15" d="m398.44,299.43c-16.47,24.76-28.05,52.77-33.87,81.94"/>
            </g>
            <g>
              <path class="cls-21" d="m384.27,297.25c-.21-1.26-.49-2.51-.83-3.74-.28.07-.56.13-.87.16-6.02.64-7.56-7.57-3.11-9.93-2.43-7.99-5.27-12.66-10.57-16.62-9.66,7.15-17.56,20.89-17.82,32.9-.05,2.4.1,4.79.42,7.16.33-.1.69-.17,1.07-.22,6.68-.71,7.85,9.47,1.42,10.48,2.02,5.73,5,11.16,8.67,16.01,4.13-2.19,8.05-4.39,11.6-7.44,3.55-3.05,6.6-6.76,8.43-11.06,2.36-5.53,2.59-11.78,1.6-17.7Z"/>
              <path class="cls-15" d="m369.68,271.82c-6.97,36.02-8.79,73.04-5.39,109.57"/>
            </g>
            <path class="cls-12" d="m339.07,369.4v22c0,2.89,2.34,5.22,5.22,5.22h40.56c2.89,0,5.22-2.34,5.22-5.22v-22h-51.01Z"/>
          </g>
          <path class="cls-3" d="m370.11,374.67c0,1.37-6.22,2.49-13.9,2.49s-13.9-1.11-13.9-2.49,6.22-2.49,13.9-2.49,13.9,1.11,13.9,2.49Z"/>
        </g>
        <g>
          <g>
            <g>
              <path class="cls-14" d="m272.05,210.91l-17.24,181.64c-.24,2.5-2.46,4.34-4.96,4.1-2.35-.22-4.12-2.22-4.12-4.54l.57-182.45c.02-7.13,5.82-12.89,12.94-12.86,7.13.02,12.89,5.82,12.86,12.94,0,.39-.02.8-.06,1.18Z"/>
              <g>
                <path class="cls-16" d="m258.78,400.16h-35.02s-.19-.94-.05-2.16c.25-2.15,1.56-5.19,6.87-5.43,8.31-.37,13.95-3.07,13.95-3.07,5.29.85,11.29,0,11.29,0,3.45,5.41,2.97,10.66,2.97,10.66Z"/>
                <path class="cls-9" d="m236.98,393.99c-.37-.84-.92-1.66-1.61-2.37-.15-.16-.33-.28-.57-.33-.22-.05-.49-.03-.66.07-.34.2-.51.66-.18,1,.36.37.67.76.95,1.17.17.28.32.56.45.85.16.37.72.63,1.14.51.44-.12.67-.5.49-.9Z"/>
                <path class="cls-9" d="m239.99,393.45c-.37-.84-.92-1.66-1.61-2.37-.15-.16-.33-.28-.57-.33-.22-.05-.49-.03-.67.07-.34.2-.51.66-.18,1,.36.37.67.76.94,1.17.17.28.32.56.45.85.16.37.72.63,1.14.51.44-.12.67-.5.49-.9Z"/>
                <path class="cls-9" d="m243,392.92c-.37-.84-.92-1.66-1.61-2.37-.15-.16-.33-.28-.57-.33-.22-.05-.49-.03-.66.07-.34.2-.51.66-.18,1,.36.37.67.76.95,1.17.17.28.32.56.45.85.16.37.72.63,1.14.51.44-.12.67-.5.49-.9Z"/>
                <path class="cls-9" d="m223.76,400.16h35.02s.07-.83-.05-2.16h-35.02c-.14,1.22.05,2.16.05,2.16Z"/>
              </g>
            </g>
            <g>
              <path class="cls-14" d="m299.8,209.06l12.01,183.17c.16,2.51-1.73,4.67-4.24,4.84-2.36.15-4.42-1.54-4.79-3.83l-28.6-181.33c-1.11-7.04,3.7-13.65,10.74-14.76,7.04-1.11,13.65,3.7,14.76,10.74.06.38.1.79.13,1.17Z"/>
              <g>
                <path class="cls-16" d="m315.43,400.16h-35.02s-.19-.94-.05-2.16c.25-2.15,1.56-5.19,6.87-5.43,8.31-.37,13.95-3.07,13.95-3.07,5.29.85,11.29,0,11.29,0,3.45,5.41,2.97,10.66,2.97,10.66Z"/>
                <path class="cls-9" d="m293.64,393.99c-.37-.84-.92-1.66-1.61-2.37-.15-.16-.33-.28-.57-.33-.22-.05-.49-.03-.66.07-.34.2-.51.66-.18,1,.36.37.67.76.95,1.17.17.28.32.56.45.85.16.37.72.63,1.14.51.44-.12.67-.5.49-.9Z"/>
                <path class="cls-9" d="m296.65,393.45c-.37-.84-.92-1.66-1.61-2.37-.15-.16-.33-.28-.57-.33-.22-.05-.49-.03-.67.07-.34.2-.51.66-.18,1,.36.37.67.76.94,1.17.17.28.32.56.45.85.16.37.72.63,1.14.51.44-.12.67-.5.49-.9Z"/>
                <path class="cls-9" d="m299.66,392.92c-.37-.84-.92-1.66-1.61-2.37-.15-.16-.33-.28-.57-.33-.22-.05-.49-.03-.66.07-.34.2-.51.66-.18,1,.36.37.67.76.95,1.17.17.28.32.56.45.85.16.37.72.63,1.14.51.44-.12.67-.5.49-.9Z"/>
                <path class="cls-9" d="m280.41,400.16h35.02s.07-.83-.05-2.16h-35.02c-.14,1.22.05,2.16.05,2.16Z"/>
              </g>
            </g>
            <g>
              <path class="cls-5" d="m296.7,378.9h17.58l-8.55-149.98c-.65-14.5-4.57-28.66-11.47-41.43l-4.31-7.97-21.23-3.4-.72-3.47-13.43,6.84-4.91,14.47c-3.36,9.91-5.12,20.3-5.19,30.77l-2.21,154.18h17.28l13.35-157.37.87.09,22.93,157.28Z"/>
              <polygon class="cls-21" points="294.46 370.96 295.92 380.22 315.46 380.22 314.28 371.71 294.46 370.96"/>
              <polygon class="cls-21" points="241.85 370.96 241.85 379.85 260.05 379.85 260.51 373.39 241.85 370.96"/>
              <path class="cls-19" d="m272.49,221.48s-.04,0-.05,0c-1.99-.58-3.85-1.62-5.51-3.11-.08-.07-.08-.19-.01-.27.07-.08.19-.08.27-.01,1.62,1.44,3.42,2.46,5.36,3.02.1.03.16.14.13.24-.02.08-.1.14-.18.14Z"/>
            </g>
          </g>
          <g>
            <path class="cls-14" d="m235.41,173.46l-25.22-34.95c-1.21-1.68-.84-4.03.85-5.25,1.55-1.12,3.67-.88,4.94.48l29.46,31.46c2.46,2.62,2.32,6.74-.3,9.2-2.62,2.46-6.74,2.32-9.2-.3-.18-.2-.37-.43-.53-.64Z"/>
            <path class="cls-14" d="m241.76,176.25c-.81,0-1.63-.15-2.42-.47-3.33-1.34-4.94-5.12-3.6-8.45l19.26-47.86c1.34-3.33,5.12-4.94,8.45-3.6,3.33,1.34,4.94,5.12,3.6,8.45l-19.26,47.86c-1.02,2.53-3.45,4.07-6.03,4.07Z"/>
            <path class="cls-6" d="m245.63,164.62s-.1-.02-.14-.06l-4.68-4.66c-.07-.07-.07-.19,0-.27.07-.07.19-.07.27,0l4.68,4.66c.07.07.07.19,0,.27-.04.04-.09.06-.14.06Z"/>
            <path class="cls-14" d="m216.87,133.99s.09-13.19-1.02-13.9c-1.11-.71-3.12,8.19-3.12,8.19,0,0-19.41-6.74-20.1-5.65-.7,1.09,7.64,4.43,7.64,4.43,0,0-9.92-2.42-10.41-1.21-.44,1.1,9.64,4.24,9.64,4.24,0,0-10.74-1.38-10.5-.29.24,1.09,9.8,3.11,9.8,3.11,0,0-8.84-.02-8.61.7.23.72,8.97,2.42,8.97,2.42,4.34.87,5.9,2.14,10.23,4.13,7.79,3.59,9.03.56,7.49-6.19Z"/>
            <path class="cls-10" d="m264.32,114.96l-1.77-.28c-4.17-.66-8.24,1.67-9.77,5.61l-10.97,28.18c4.15,3.4,15.77,6.53,15.77,6.53l8.06-36.51-1.32-3.53Z"/>
            <path class="cls-16" d="m290.86,114.99l-15.47,2.16-11.07-2.18-8.85,21.51c-2.26,3.14-4.53,6.59-4.74,11.07-.21,4.35,2.29,7.22,4.01,8.66l-.16,23.28,35.37.03,7.9-44.99-6.98-19.54Z"/>
            <path class="cls-10" d="m267.52,115.59l-5.59,38.54-3.53,69.24c-7.33.97-15.62,0-15.62,0h0c0-10.22,1.79-20.36,5.29-29.96l5.3-14.53.68-23.57s-3.47-1.76-3.09-8.32c.38-6.56,4.44-11.1,4.44-11.1l8.91-20.93,3.21.63Z"/>
            <path class="cls-10" d="m287.91,115.4l-8.23,38.73,5.96,69.41c12.31,1.06,22.79,0,22.79,0l-.16-2.17c-1.11-14.76-6.35-28.92-15.13-40.84l-1.58-2.14,6.92-44.53-7.62-18.88-2.95.41Z"/>
            <path class="cls-17" d="m259.38,216.79l-.18,7.01c-11.08,1.02-16.99,0-16.99,0v-6.7c6.84.44,17.17-.31,17.17-.31Z"/>
            <path class="cls-17" d="m284.4,217.54l.57,7.19c14.56,1.02,24.14-.26,24.14-.26l-.7-6.75c-11.66.53-24.02-.18-24.02-.18Z"/>
            <g>
              <g>
                <path class="cls-14" d="m281.45,100.93l1,15.34s-6.69,4.31-12.09.92l.19-11.64,10.9-4.62Z"/>
                <path class="cls-1" d="m270.47,110.6c7.01.54,10.84-3.98,10.84-3.98h-10.77l-.06,3.98Z"/>
                <path class="cls-14" d="m275.39,117.14l-6.97-1.37c0,7.53,12.88,10.06,17.98-.16l-11.01,1.54Z"/>
              </g>
              <g>
                <ellipse class="cls-12" cx="292.36" cy="76.97" rx="9.2" ry="10.99" transform="translate(44.76 250.44) rotate(-49.76)"/>
                <path class="cls-10" d="m292.87,83.39c-2.26,2.68-6.69,2.65-9.89-.05s-3.95-7.07-1.69-9.74c2.26-2.68,6.69-2.65,9.89.05s3.95,7.07,1.69,9.74Z"/>
                <path class="cls-12" d="m294.61,86.81c-.44-5.81-3.97-11.27-9.02-14.17-4.07-2.33-9.03-2.98-13.59-1.94-4.38-1.76-9.69-.99-13.49,1.85-4.27,3.19-6.56,8.7-6.22,14.02.34,5.32,3.18,10.34,7.31,13.71,4.12,3.37,9.44,5.14,14.77,5.34,4.67.18,9.5-.87,13.28-3.61,4.72-3.42,7.42-9.4,6.98-15.21Z"/>
                <path class="cls-14" d="m270.47,75.26c12.07-1.8,18.4,5.17,17.38,18.71-.81,10.78-7.53,16.75-15.91,15.4-6.63-1.07-10.82-6.33-11.51-14.34-.98-11.43,2.88-18.71,10.04-19.78Z"/>
                <path class="cls-12" d="m291.09,88.49c-.22-1.08-.53-2.14-.9-3.16-1.53-4.14-4.32-7.68-7.81-9.7-4.32-2.49-9.54-2.71-13.99-.56-.22.11-.29.37-.24.58-.15.08-.25.26-.2.49,1.06,4.59,3.34,8.78,6.48,11.85,3.28,3.2,7.44,5.11,11.72,5.45,1.08.08,2.19.1,3.27-.07.81-.12,1.69-.49,1.94-1.49.27-1.03-.06-2.38-.27-3.4Z"/>
                <g>
                  <path class="cls-14" d="m286.15,94.76c-.76,1.89-.21,3.71,1.15,4.26,1.37.55,3.09-.53,3.86-2.42.76-1.89.27-3.87-1.09-4.42-1.37-.55-3.15.69-3.92,2.57Z"/>
                  <path class="cls-1" d="m287.47,97.28c-.16,0-.3-.1-.36-.25-.07-.2.03-.42.23-.49.28-.1.59-.36.6-.7,0-.13-.05-.27-.11-.43-.07-.17-.14-.36-.15-.59-.03-.42.14-.85.44-1.16.38-.39.88-.59,1.34-.51.76.12,1.16.86,1.16,1.53,0,.21-.17.38-.38.38s-.38-.17-.38-.38c0-.33-.18-.72-.52-.77-.2-.04-.47.08-.67.29-.15.16-.24.38-.22.59,0,.11.05.23.11.37.08.21.17.45.16.74-.04.69-.58,1.19-1.11,1.38-.04.02-.09.02-.13.02Z"/>
                </g>
                <g>
                  <path class="cls-12" d="m261.44,88.01s3.68-.63,5.96-.22c-1.24-1.72-4.53-.89-5.96.22Z"/>
                  <path class="cls-12" d="m279.28,88.01s-3.68-.63-5.96-.22c1.24-1.72,4.53-.89,5.96.22Z"/>
                  <g>
                    <path class="cls-16" d="m266.25,93.44c0,.73-.48,1.32-1.07,1.32s-1.07-.59-1.07-1.32.48-1.32,1.07-1.32,1.07.59,1.07,1.32Z"/>
                    <path class="cls-2" d="m265.17,92.96c0,.24-.15.43-.34.43s-.34-.19-.34-.43.15-.43.34-.43.34.19.34.43Z"/>
                  </g>
                  <g>
                    <path class="cls-16" d="m276.63,93.44c0,.73-.48,1.32-1.07,1.32s-1.07-.59-1.07-1.32.48-1.32,1.07-1.32,1.07.59,1.07,1.32Z"/>
                    <path class="cls-2" d="m275.55,92.96c0,.24-.15.43-.34.43s-.34-.19-.34-.43.15-.43.34-.43.34.19.34.43Z"/>
                  </g>
                  <path class="cls-1" d="m269.23,98.35s-.05,0-.07,0c-.64-.12-1.1-.39-1.32-.78-.12-.22-.23-.59-.04-1.11.11-.29.33-.65.56-1.04.21-.35.42-.71.51-.94.07-.2.29-.3.49-.22.2.07.3.29.22.49-.11.3-.33.67-.57,1.07-.2.34-.41.69-.5.91-.11.29-.04.42-.01.46.1.18.39.33.79.4.21.04.34.24.31.45-.03.18-.19.31-.37.31Z"/>
                  <path class="cls-2" d="m266.64,100.02c2.36.17,4.82.06,7.38-.27-1.31,2.94-6.56,2.42-7.38.27Z"/>
                </g>
              </g>
            </g>
            <g>
              <path class="cls-14" d="m305.44,162.58l45.45-14.23c1.98-.62,4.09.48,4.71,2.46.58,1.84-.34,3.79-2.06,4.56l-43.51,19.36c-3.28,1.46-7.13-.02-8.59-3.3-1.46-3.28.02-7.13,3.3-8.59.23-.1.47-.19.7-.26Z"/>
              <path class="cls-14" d="m349.87,148.67s7.7-11.79,9.29-11.46-1.42,7.61-1.42,7.61c0,0,10.86.76,11.52,1.75.66.99-2.47,10.46-4.02,10.84-3.4-1.14-12.49-.14-14.86-.64-2.37-.5-.5-8.11-.5-8.11Z"/>
              <g>
                <path class="cls-2" d="m365.36,133.59l-21.36-4.13-6.64,34.33,24.38,4.71,6.05-31.31c-.95-1.41-1.49-2.2-2.44-3.61Z"/>
                <polygon class="cls-11" points="365.36 133.59 364.78 136.6 367.8 137.18 365.36 133.59"/>
                <rect class="cls-11" x="345" y="141.12" width="18.68" height=".63" transform="translate(33.29 -64.7) rotate(10.94)"/>
                <rect class="cls-11" x="344.22" y="145.13" width="18.68" height=".63" transform="translate(34.04 -64.48) rotate(10.94)"/>
                <rect class="cls-11" x="343.44" y="149.14" width="18.68" height=".63" transform="translate(34.79 -64.26) rotate(10.94)"/>
                <rect class="cls-11" x="342.67" y="153.15" width="18.68" height=".63" transform="translate(35.54 -64.04) rotate(10.94)"/>
                <rect class="cls-11" x="341.89" y="157.17" width="18.68" height=".63" transform="translate(36.28 -63.81) rotate(10.94)"/>
              </g>
              <path class="cls-14" d="m368.53,146.93c.04-.85-8.47-.91-8.54,0-.07.91,6.19,1.9,6.19,1.9,0,0-7.8-.41-7.93.62-.13,1.03,7.63,2.37,7.63,2.37,0,0-5.97-.45-6.09.25-.12.7,5.53,1.79,5.53,1.79,0,0-4.92.35-5,1.09-.08.74,5.2,1.16,5.2,1.16,0,0,2.81-4.97,3.01-9.19Z"/>
              <path class="cls-14" d="m307.4,175.3c-3.04,0-5.75-2.14-6.36-5.23l-9.54-47.89c-.7-3.52,1.58-6.94,5.1-7.64,3.52-.7,6.94,1.58,7.64,5.1l9.54,47.89c.7,3.52-1.58,6.94-5.1,7.64-.43.09-.86.13-1.28.13Z"/>
              <path class="cls-10" d="m290.86,114.99l5.26-.95c4.8-.86,9.4,2.3,10.3,7.1l6.14,32.72c-4.85,2.3-16.29,3.49-16.29,3.49l-6.81-35.96,1.4-6.39Z"/>
              <path class="cls-6" d="m304.88,162.91c-.05-.02-.09-.06-.11-.12-.03-.1.02-.21.12-.24l6.94-2.25c.1-.03.21.02.24.12.03.1-.02.21-.12.24l-6.94,2.25s-.09.01-.13,0Z"/>
            </g>
            <g>
              <path class="cls-17" d="m293.25,138.22s-.08-.01-.12-.04c-2.51-1.94-3.02-3.87-3.04-3.95-.02-.1.04-.21.14-.23.1-.03.21.04.23.14,0,.02.41,1.57,2.3,3.25-.62-1.55-1.99-5.33-2.09-8.98,0-.11.08-.19.19-.2h0c.1,0,.19.08.19.19.13,4.63,2.34,9.51,2.36,9.56.04.08.01.17-.06.23-.03.03-.08.04-.12.04Z"/>
              <path class="cls-17" d="m256.28,157.5s-.06,0-.09-.02c-.06-.03-5.96-3.35-5.65-9.95.24-4.91,2.95-8.66,5.34-11.96l.19-.27c-.01-.71-.06-6.45,1.13-9.64.04-.1.15-.15.25-.11.1.04.15.15.11.25-1.22,3.27-1.11,9.51-1.11,9.57,0,.04-.01.08-.04.12l-.23.32c-2.36,3.26-5.04,6.96-5.27,11.75-.3,6.36,5.39,9.56,5.45,9.59.09.05.13.17.08.26-.03.06-.1.1-.17.1Z"/>
              <path class="cls-17" d="m256.29,133.87s-.07,0-.1-.03c-1.47-.96-1.83-2.81-1.84-2.89-.02-.1.05-.2.15-.22.11-.02.2.05.22.15,0,.02.35,1.78,1.68,2.64.09.06.11.18.06.26-.04.06-.1.09-.16.09Z"/>
              <path class="cls-17" d="m278.69,158.05c-.14,0-.28,0-.42,0-.11,0-.19-.09-.19-.19,0-.11.11-.19.19-.19.13,0,.26,0,.39,0,7.32,0,11.71-4.24,12.51-7.32.03-.1.13-.16.23-.14.1.03.16.13.14.23-.77,2.98-4.93,7.61-12.85,7.61Z"/>
            </g>
          </g>
        </g>
      </g>
    </g>
  </g>
</svg>